<svg xmlns="http://www.w3.org/2000/svg" width="54.997" height="54.997" viewBox="0 0 54.997 54.997"><defs><style>.a{fill:#21083e;}.b{fill:#59c5dd;}.b,.c,.d,.e,.f,.g,.h,.i,.j,.k,.l,.m,.n,.o{fill-rule:evenodd;}.c{fill:#005ea8;}.d{fill:#8ec63e;}.e{fill:#b2d235;}.f{fill:#eb008b;}.g{fill:#eb5ba0;}.h{fill:#fcba20;}.i{fill:#f9e22a;}.j{fill:#ec1c24;}.k{fill:#f06465;}.l{fill:#5152a2;}.m{fill:#9d9bcc;}.n{fill:#fff;}.o{fill:#d0d2d3;}</style></defs><g transform="translate(-596 -1131)"><path class="a" d="M19.477,0A19.444,19.444,0,1,1,0,19.477,19.364,19.364,0,0,1,19.477,0Z" transform="translate(596.002 1158.498) rotate(-45)"/><path class="b" d="M-207.142,270.24l-16.047,1.157,10.6,6.121A19.322,19.322,0,0,0-207.142,270.24Z" transform="translate(848.471 895.974)"/><path class="c" d="M-205.6,237.193c-5.879,3.394-11.735,6.736-17.588,10.115l16.048-1.157A19.489,19.489,0,0,0-205.6,237.193Z" transform="translate(848.471 920.033)"/><path class="d" d="M-198.24,177.689c0,6.788-.034,13.531-.034,20.289l7.022-14.476A19.486,19.486,0,0,0-198.24,177.689Z" transform="translate(830.309 963.352)"/><path class="e" d="M-191.252,199.134l-7.022,14.476,10.6-6.12A19.318,19.318,0,0,0-191.252,199.134Z" transform="translate(830.309 947.739)"/><g transform="translate(604.361 1155.666)"><path class="f" d="M-280.166,251.64c0-6.788.034-13.531.034-20.289l-7.022,14.476A19.493,19.493,0,0,0-280.166,251.64Z" transform="translate(290.734 -231.351)"/><path class="g" d="M-296.779,245.827l7.022-14.476-10.6,6.12A19.323,19.323,0,0,0-296.779,245.827Z" transform="translate(300.359 -231.351)"/></g><path class="h" d="M-269.6,173.982c5.879,3.395,11.7,6.8,17.554,10.174l-9.025-13.319A19.5,19.5,0,0,0-269.6,173.982Z" transform="translate(882.303 968.291)"/><path class="i" d="M-238.14,170.472l9.025,13.319V171.55A19.3,19.3,0,0,0-238.14,170.472Z" transform="translate(859.367 968.656)"/><path class="j" d="M-301.327,219.493c5.879-3.394,11.735-6.736,17.588-10.116l-16.047,1.157A19.491,19.491,0,0,0-301.327,219.493Z" transform="translate(905.457 940.277)"/><path class="k" d="M-295.531,194.077l16.048-1.157-10.6-6.12A19.312,19.312,0,0,0-295.531,194.077Z" transform="translate(901.201 956.705)"/><path class="l" d="M-237.125,274.09c-5.88-3.395-11.7-6.8-17.555-10.174l9.025,13.319A19.5,19.5,0,0,0-237.125,274.09Z" transform="translate(871.424 900.633)"/><path class="m" d="M-245.654,277.235l-9.025-13.319v12.242A19.315,19.315,0,0,0-245.654,277.235Z" transform="translate(871.424 900.633)"/><g transform="translate(616.725 1148.778)"><path class="n" d="M-254.754,208.916v13.832a2.811,2.811,0,0,0,4.485,2.211l11.047-6.377c1.206-.7,3.825-3.39-.047-5.626l-11.264-6.506A2.818,2.818,0,0,0-254.754,208.916Z" transform="translate(254.754 -206.088)"/><path class="o" d="M-251.65,211.446l.092,7.037c5.487-5.852,8.271-2.336,14.54.392,1.717.747,1.458-1.9-.088-2.868l-11.312-6.385A2.134,2.134,0,0,0-251.65,211.446Z" transform="translate(252.491 -208.46)"/><path class="o" d="M-251.651,252.517v-.689c6.323,3.76,14.064-5.8,14.47-4.17l.074.3-11.312,6.385A2.134,2.134,0,0,1-251.651,252.517Z" transform="translate(252.492 -236.252)"/></g></g></svg>